<?xml version="1.0" standalone="no"?>
<!DOCTYPE svg PUBLIC "-//W3C//DTD SVG 20010904//EN"
 "http://www.w3.org/TR/2001/REC-SVG-20010904/DTD/svg10.dtd">
<svg version="1.0" xmlns="http://www.w3.org/2000/svg"
 width="512.000000pt" height="512.000000pt" viewBox="0 0 512.000000 512.000000"
 preserveAspectRatio="xMidYMid meet">
<metadata>
Created by potrace 1.11, written by Peter Selinger 2001-2013
</metadata>
<g transform="translate(0.000000,512.000000) scale(0.100000,-0.100000)"
fill="#000000" stroke="none">
<path d="M2369 5116 c-2 -2 -34 -6 -70 -10 -393 -37 -815 -187 -1149 -409
-586 -390 -981 -988 -1110 -1682 -28 -153 -35 -241 -34 -465 0 -215 6 -291 37
-452 l12 -68 1520 1520 c836 836 1513 1520 1505 1521 -8 0 -24 2 -35 4 -37 7
-100 16 -140 21 -22 3 -51 8 -65 11 -28 5 -466 14 -471 9z"/>
<path d="M2025 3094 c-946 -948 -1721 -1726 -1723 -1728 -12 -16 153 -271 265
-411 219 -272 505 -508 804 -662 l97 -50 1704 1706 1705 1706 -39 75 c-208
396 -489 710 -848 951 -140 94 -220 140 -237 138 -4 -1 -782 -777 -1728 -1725z"/>
<path d="M3623 1490 c-846 -845 -1454 -1461 -1444 -1461 9 -1 25 -3 36 -5 117
-20 467 -26 605 -11 116 13 118 13 239 37 378 72 767 251 1076 493 138 109
264 228 355 336 25 30 50 59 55 65 60 64 203 279 259 386 22 41 47 89 56 105
63 114 155 377 196 556 30 136 39 188 52 319 17 178 3 613 -21 637 -2 2 -661
-654 -1464 -1457z"/>
</g>
</svg>
