<svg width="8" height="8" viewBox="0 0 8 8" fill="none" xmlns="http://www.w3.org/2000/svg">
<path fill-rule="evenodd" clip-rule="evenodd" d="M4 0C4.28465 0 4.56236 0.0297339 4.83019 0.0862653L0.0862653 4.83019C0.0297339 4.56236 0 4.28465 0 4C0 1.79086 1.79086 0 4 0ZM2.29635 7.6201C1.51172 7.2502 0.866776 6.63272 0.462274 5.8684L5.8684 0.462274C6.63272 0.866776 7.2502 1.51172 7.6201 2.29635L2.29635 7.6201ZM3.37864 7.95203C3.58113 7.98361 3.78865 8 4 8C6.20914 8 8 6.20914 8 4C8 3.78865 7.98361 3.58113 7.95203 3.37864L3.37864 7.95203Z" fill="#F36464"/>
</svg>
