<svg width="72" height="14" viewBox="0 0 72 14" fill="none" xmlns="http://www.w3.org/2000/svg">
<path d="M19.5469 8.11133C19.5195 8.70508 19.3594 9.23047 19.0664 9.6875C18.7734 10.1406 18.3613 10.4922 17.8301 10.7422C17.3027 10.9922 16.6992 11.1172 16.0195 11.1172C14.8984 11.1172 14.0156 10.752 13.3711 10.0215C12.7266 9.29102 12.4043 8.25977 12.4043 6.92773V6.50586C12.4043 5.66992 12.5488 4.93945 12.8379 4.31445C13.1309 3.68555 13.5508 3.20117 14.0977 2.86133C14.6445 2.51758 15.2773 2.3457 15.9961 2.3457C17.0312 2.3457 17.8633 2.61914 18.4922 3.16602C19.1211 3.70898 19.4785 4.45898 19.5645 5.41602H17.5137C17.498 4.89648 17.3672 4.52344 17.1211 4.29688C16.875 4.07031 16.5 3.95703 15.9961 3.95703C15.4844 3.95703 15.1094 4.14844 14.8711 4.53125C14.6328 4.91406 14.5078 5.52539 14.4961 6.36523V6.96875C14.4961 7.87891 14.6094 8.5293 14.8359 8.91992C15.0664 9.31055 15.4609 9.50586 16.0195 9.50586C16.4922 9.50586 16.8535 9.39453 17.1035 9.17188C17.3535 8.94922 17.4863 8.5957 17.502 8.11133H19.5469ZM20.1797 7.77148C20.1797 7.13867 20.3027 6.57617 20.5488 6.08398C20.7949 5.58789 21.1484 5.20703 21.6094 4.94141C22.0703 4.67578 22.6113 4.54297 23.2324 4.54297C24.1816 4.54297 24.9297 4.83789 25.4766 5.42773C26.0234 6.01367 26.2969 6.8125 26.2969 7.82422V7.89453C26.2969 8.88281 26.0215 9.66797 25.4707 10.25C24.9238 10.8281 24.1816 11.1172 23.2441 11.1172C22.3418 11.1172 21.6172 10.8477 21.0703 10.3086C20.5234 9.76562 20.2285 9.03125 20.1855 8.10547L20.1797 7.77148ZM22.1543 7.89453C22.1543 8.48047 22.2461 8.91016 22.4297 9.18359C22.6133 9.45703 22.8848 9.59375 23.2441 9.59375C23.9473 9.59375 24.3066 9.05273 24.3223 7.9707V7.77148C24.3223 6.63477 23.959 6.06641 23.2324 6.06641C22.5723 6.06641 22.2148 6.55664 22.1602 7.53711L22.1543 7.89453ZM29.25 11H27.2695V2H29.25V11ZM30.2227 7.77148C30.2227 7.13867 30.3457 6.57617 30.5918 6.08398C30.8379 5.58789 31.1914 5.20703 31.6523 4.94141C32.1133 4.67578 32.6543 4.54297 33.2754 4.54297C34.2246 4.54297 34.9727 4.83789 35.5195 5.42773C36.0664 6.01367 36.3398 6.8125 36.3398 7.82422V7.89453C36.3398 8.88281 36.0645 9.66797 35.5137 10.25C34.9668 10.8281 34.2246 11.1172 33.2871 11.1172C32.3848 11.1172 31.6602 10.8477 31.1133 10.3086C30.5664 9.76562 30.2715 9.03125 30.2285 8.10547L30.2227 7.77148ZM32.1973 7.89453C32.1973 8.48047 32.2891 8.91016 32.4727 9.18359C32.6562 9.45703 32.9277 9.59375 33.2871 9.59375C33.9902 9.59375 34.3496 9.05273 34.3652 7.9707V7.77148C34.3652 6.63477 34.002 6.06641 33.2754 6.06641C32.6152 6.06641 32.2578 6.55664 32.2031 7.53711L32.1973 7.89453ZM41.0449 6.44727L40.3945 6.40039C39.7734 6.40039 39.375 6.5957 39.1992 6.98633V11H37.2246V4.66016H39.0762L39.1406 5.47461C39.4727 4.85352 39.9355 4.54297 40.5293 4.54297C40.7402 4.54297 40.9238 4.56641 41.0801 4.61328L41.0449 6.44727ZM49.2363 8.73242C49.2363 8.43164 49.1289 8.19727 48.9141 8.0293C48.7031 7.86133 48.3301 7.6875 47.7949 7.50781C47.2598 7.32812 46.8223 7.1543 46.4824 6.98633C45.377 6.44336 44.8242 5.69727 44.8242 4.74805C44.8242 4.27539 44.9609 3.85937 45.2344 3.5C45.5117 3.13672 45.9023 2.85547 46.4062 2.65625C46.9102 2.45312 47.4766 2.35156 48.1055 2.35156C48.7188 2.35156 49.2676 2.46094 49.752 2.67969C50.2402 2.89844 50.6191 3.21094 50.8887 3.61719C51.1582 4.01953 51.293 4.48047 51.293 5H49.2422C49.2422 4.65234 49.1348 4.38281 48.9199 4.19141C48.709 4 48.4219 3.9043 48.0586 3.9043C47.6914 3.9043 47.4004 3.98633 47.1855 4.15039C46.9746 4.31055 46.8691 4.51562 46.8691 4.76562C46.8691 4.98438 46.9863 5.18359 47.2207 5.36328C47.4551 5.53906 47.8672 5.72266 48.457 5.91406C49.0469 6.10156 49.5312 6.30469 49.9102 6.52344C50.832 7.05469 51.293 7.78711 51.293 8.7207C51.293 9.4668 51.0117 10.0527 50.4492 10.4785C49.8867 10.9043 49.1152 11.1172 48.1348 11.1172C47.4434 11.1172 46.8164 10.9941 46.2539 10.748C45.6953 10.498 45.2734 10.1582 44.9883 9.72852C44.707 9.29492 44.5664 8.79688 44.5664 8.23438H46.6289C46.6289 8.69141 46.7461 9.0293 46.9805 9.24805C47.2188 9.46289 47.6035 9.57031 48.1348 9.57031C48.4746 9.57031 48.7422 9.49805 48.9375 9.35352C49.1367 9.20508 49.2363 8.99805 49.2363 8.73242ZM58.1426 7.87695C58.1426 8.86133 57.9199 9.64844 57.4746 10.2383C57.0332 10.8242 56.4355 11.1172 55.6816 11.1172C55.0996 11.1172 54.6211 10.9043 54.2461 10.4785V13.4375H52.2715V4.66016H54.1172L54.1758 5.24609C54.5547 4.77734 55.0527 4.54297 55.6699 4.54297C56.4512 4.54297 57.0586 4.83203 57.4922 5.41016C57.9258 5.98438 58.1426 6.77539 58.1426 7.7832V7.87695ZM56.168 7.75391C56.168 6.62891 55.8398 6.06641 55.1836 6.06641C54.7148 6.06641 54.4023 6.23438 54.2461 6.57031V9.06641C54.418 9.41797 54.7344 9.59375 55.1953 9.59375C55.8242 9.59375 56.1484 9.05078 56.168 7.96484V7.75391ZM62.0859 11.1172C61.1133 11.1172 60.3262 10.8281 59.7246 10.25C59.123 9.66797 58.8223 8.91211 58.8223 7.98242V7.81836C58.8223 7.16992 58.9414 6.59766 59.1797 6.10156C59.4219 5.60547 59.7734 5.22266 60.2344 4.95312C60.6953 4.67969 61.2422 4.54297 61.875 4.54297C62.7656 4.54297 63.4688 4.82031 63.9844 5.375C64.5 5.92578 64.7578 6.69531 64.7578 7.68359V8.45117H60.832C60.9023 8.80664 61.0566 9.08594 61.2949 9.28906C61.5332 9.49219 61.8418 9.59375 62.2207 9.59375C62.8457 9.59375 63.334 9.375 63.6855 8.9375L64.5879 10.0039C64.3418 10.3438 63.9922 10.6152 63.5391 10.8184C63.0898 11.0176 62.6055 11.1172 62.0859 11.1172ZM61.8633 6.06641C61.2852 6.06641 60.9414 6.44922 60.832 7.21484H62.8242V7.0625C62.832 6.74609 62.752 6.50195 62.584 6.33008C62.416 6.1543 62.1758 6.06641 61.8633 6.06641ZM68.2383 9.59375C68.5156 9.59375 68.7305 9.51953 68.8828 9.37109C69.0352 9.21875 69.1094 9.00781 69.1055 8.73828H70.957C70.957 9.43359 70.707 10.0039 70.207 10.4492C69.7109 10.8945 69.0703 11.1172 68.2852 11.1172C67.3633 11.1172 66.6367 10.8281 66.1055 10.25C65.5742 9.67188 65.3086 8.87109 65.3086 7.84766V7.76562C65.3086 7.125 65.4258 6.56055 65.6602 6.07227C65.8984 5.58008 66.2402 5.20312 66.6855 4.94141C67.1309 4.67578 67.6582 4.54297 68.2676 4.54297C69.0918 4.54297 69.7461 4.77148 70.2305 5.22852C70.7148 5.68555 70.957 6.30469 70.957 7.08594H69.1055C69.1055 6.75781 69.0254 6.50586 68.8652 6.33008C68.7051 6.1543 68.4902 6.06641 68.2207 6.06641C67.709 6.06641 67.4102 6.39258 67.3242 7.04492C67.2969 7.25195 67.2832 7.53711 67.2832 7.90039C67.2832 8.53711 67.3594 8.97852 67.5117 9.22461C67.6641 9.4707 67.9062 9.59375 68.2383 9.59375Z" fill="white"/>
<path fill-rule="evenodd" clip-rule="evenodd" d="M4 3C4.28465 3 4.56236 3.02973 4.83019 3.08627L0.0862653 7.83019C0.0297339 7.56236 0 7.28465 0 7C0 4.79086 1.79086 3 4 3ZM2.29635 10.6201C1.51172 10.2502 0.866776 9.63272 0.462274 8.8684L5.8684 3.46227C6.63272 3.86678 7.2502 4.51172 7.6201 5.29635L2.29635 10.6201ZM3.37864 10.952C3.58113 10.9836 3.78865 11 4 11C6.20914 11 8 9.20914 8 7C8 6.78865 7.98361 6.58113 7.95203 6.37864L3.37864 10.952Z" fill="#F36464"/>
</svg>
